<svg width="45.563477" height="26.759338" viewBox="0 0 45.5635 26.7593" fill="none" xmlns="http://www.w3.org/2000/svg" xmlns:xlink="http://www.w3.org/1999/xlink">
	<desc>
			Created with Pixso.
	</desc>
	<defs/>
	<rect id="Rectangle 44" rx="3.500000" width="45.000000" height="7.000000" transform="matrix(-1 0 0 1 45.5635 9.98706)" fill="#D6FFF3" fill-opacity="1.000000"/>
	<rect id="Rectangle 44" rx="3.000000" width="44.000000" height="6.000000" transform="matrix(-1 0 0 1 45.5635 9.98706)" stroke="#000000" stroke-opacity="1.000000" stroke-width="1.000000"/>
	<mask id="mask_201_30459" fill="white">
		<path id="Union" d="M8.77246 13.3813L17.1357 6.14575C18.5977 4.88113 18.7568 2.67117 17.4922 1.20969C16.2275 -0.251831 14.0176 -0.411407 12.5557 0.85321L1.21094 10.6678C0.393555 11.3751 -0.0166016 12.3781 0.00195312 13.3805C-0.0166016 14.3835 0.393555 15.3872 1.21094 16.0949L12.5518 25.9061C14.0127 27.1708 16.2236 27.0112 17.4883 25.5497C18.7529 24.0881 18.5938 21.8781 17.1318 20.6135L8.77246 13.3813Z" clip-rule="evenodd" fill="" fill-opacity="1.000000" fill-rule="evenodd"/>
	</mask>
	<path id="Union" d="M8.77246 13.3813L17.1357 6.14575C18.5977 4.88113 18.7568 2.67117 17.4922 1.20969C16.2275 -0.251831 14.0176 -0.411407 12.5557 0.85321L1.21094 10.6678C0.393555 11.3751 -0.0166016 12.3781 0.00195312 13.3805C-0.0166016 14.3835 0.393555 15.3872 1.21094 16.0949L12.5518 25.9061C14.0127 27.1708 16.2236 27.0112 17.4883 25.5497C18.7529 24.0881 18.5938 21.8781 17.1318 20.6135L8.77246 13.3813Z" clip-rule="evenodd" fill="#49DDA8" fill-opacity="1.000000" fill-rule="evenodd" mask="url(#mask_201_30459)"/>
	<path id="Union" d="M8.77246 13.3813L9.53667 12.7202L17.1357 6.14575C18.5977 4.88113 18.7568 2.67117 17.4922 1.20969C16.2275 -0.251831 14.0176 -0.411407 12.5557 0.85321L1.21094 10.6678C0.393555 11.3751 -0.0166016 12.3781 0.00195312 13.3805C-0.0166016 14.3835 0.393555 15.3872 1.21094 16.0949L12.5518 25.9061C14.0127 27.1708 16.2236 27.0112 17.4883 25.5497C18.7529 24.0881 18.5938 21.8781 17.1318 20.6135L9.53666 14.0425L8.77246 13.3813ZM16.4775 21.3697L7.24414 13.3813L8.11816 12.6251L16.4814 5.3895Q16.7066 5.19503 16.8759 4.96027Q16.9966 4.79283 17.0889 4.60489Q17.187 4.40542 17.2476 4.19514Q17.3198 3.94499 17.3389 3.67953Q17.358 3.41296 17.3223 3.15397Q17.2925 2.93824 17.2246 2.72778Q17.1584 2.52354 17.0597 2.33635Q16.9272 2.08482 16.7363 1.86407Q16.548 1.6463 16.3215 1.48062Q16.1476 1.35336 15.9512 1.25684Q15.7568 1.16111 15.552 1.10101Q15.2968 1.02613 15.0254 1.00656Q14.7673 0.987899 14.5161 1.021Q14.2919 1.05053 14.0732 1.12125Q13.8696 1.18723 13.6829 1.28547Q13.431 1.41807 13.21 1.60944L1.86523 11.4241Q1.62558 11.6314 1.44973 11.8833Q1.30958 12.084 1.20996 12.313Q1.10729 12.549 1.0552 12.7956Q0.996791 13.0721 1.00195 13.362L1.00195 13.3994Q0.996317 13.6874 1.05386 13.9622Q1.10599 14.2111 1.20996 14.4491Q1.30992 14.6791 1.45069 14.8805Q1.62623 15.1317 1.86523 15.3386L13.2061 25.1499Q13.4273 25.3415 13.6795 25.4741Q13.8659 25.5722 14.0693 25.6381Q14.288 25.7088 14.5122 25.7383Q14.7634 25.7715 15.0215 25.7528Q15.2929 25.7332 15.5481 25.6583Q15.7529 25.5982 15.9473 25.5025Q16.1341 25.4105 16.3009 25.2905Q16.5368 25.1208 16.7324 24.8953Q16.9234 24.6744 17.056 24.4227Q17.1545 24.2356 17.2207 24.0315Q17.2885 23.8213 17.3183 23.6057Q17.3542 23.3465 17.335 23.0797Q17.3158 22.8141 17.2436 22.5637Q17.183 22.3536 17.085 22.1544Q16.9893 21.9605 16.8638 21.7884Q16.6971 21.5598 16.4775 21.3697Z" clip-rule="evenodd" fill="#000000" fill-opacity="1.000000" fill-rule="evenodd"/>
	<mask id="mask_201_30462" fill="white">
		<path id="Union" d="" fill="" fill-opacity="1.000000" fill-rule="nonzero"/>
	</mask>
	<path id="Union" d="" fill="#49DDA8" fill-opacity="1.000000" fill-rule="nonzero" mask="url(#mask_201_30462)"/>
	<path id="Union" d="" clip-rule="evenodd" fill="#000000" fill-opacity="1.000000" fill-rule="evenodd"/>
</svg>
