<svg width="70.000000" height="70.000000" viewBox="0 0 70 70" fill="none" xmlns="http://www.w3.org/2000/svg" xmlns:xlink="http://www.w3.org/1999/xlink">
	<desc>
			Created with Pixso.
	</desc>
	<defs>
		<clipPath id="clip201_19422">
			<rect rx="0.000000" width="69.000000" height="69.000000" transform="translate(0.500000 0.500000)" fill="white" fill-opacity="0"/>
		</clipPath>
	</defs>
	<rect rx="0.000000" width="69.000000" height="69.000000" transform="translate(0.500000 0.500000)" fill="#FFFFFF" fill-opacity="0"/>
	<g clip-path="url(#clip201_19422)">
		<path d="M61.62 14.72C67.14 21.14 69.89 29.49 69.26 37.93C68.62 46.37 64.66 54.22 58.25 59.74L58.42 59.95L58.25 59.74C51.82 65.25 43.47 67.98 35.03 67.33C26.59 66.69 18.75 62.72 13.23 56.29C7.72 49.87 4.99 41.51 5.64 33.07C6.28 24.63 10.25 16.79 16.68 11.28C23.1 5.78 31.44 3.06 39.86 3.7C48.29 4.35 56.12 8.31 61.62 14.72Z" fill="#000000" fill-opacity="1.000000" fill-rule="nonzero"/>
		<path d="M69.26 37.93C68.62 46.37 64.66 54.22 58.25 59.74C51.82 65.25 43.47 67.98 35.03 67.33C26.59 66.69 18.75 62.72 13.23 56.29C7.72 49.87 4.99 41.51 5.64 33.07C6.28 24.63 10.25 16.79 16.68 11.28C23.1 5.78 31.44 3.06 39.86 3.7C48.29 4.35 56.12 8.31 61.62 14.72C67.14 21.14 69.89 29.49 69.26 37.93ZM58.25 59.74L58.42 59.95L58.25 59.74Z" stroke="#000000" stroke-opacity="1.000000" stroke-width="1.500000"/>
		<path d="M56.74 13.67C62.26 20.09 65 28.43 64.37 36.88C63.74 45.32 59.78 53.16 53.36 58.68L53.54 58.9L53.36 58.68C46.93 64.19 38.58 66.92 30.14 66.28C21.7 65.63 13.86 61.66 8.34 55.24C2.83 48.81 0.1 40.46 0.75 32.02C1.4 23.57 5.37 15.73 11.79 10.22C18.21 4.73 26.55 2.01 34.98 2.65C43.4 3.3 51.23 7.26 56.74 13.67Z" fill="#FBB251" fill-opacity="1.000000" fill-rule="nonzero"/>
		<path d="M64.37 36.88C63.74 45.32 59.78 53.16 53.36 58.68C46.93 64.19 38.58 66.92 30.14 66.28C21.7 65.63 13.86 61.66 8.34 55.24C2.83 48.81 0.1 40.46 0.75 32.02C1.4 23.57 5.37 15.73 11.79 10.22C18.21 4.73 26.55 2.01 34.98 2.65C43.4 3.3 51.23 7.26 56.74 13.67C62.26 20.09 65 28.43 64.37 36.88ZM53.36 58.68L53.54 58.9L53.36 58.68Z" stroke="#000000" stroke-opacity="1.000000" stroke-width="1.500000"/>
		<path d="M31.59 46.84L31.59 43.52C29.61 43.27 27.7 42.58 26 41.51L25.51 37.81C27.78 39.64 30.6 40.65 33.52 40.7C36.31 40.7 37.79 39.67 37.79 37.69C37.79 36.15 36.6 35.25 34.48 34.93L31.04 34.44C27.65 33.94 25.48 32.4 25.48 29.16C25.48 25.93 27.74 23.84 31.54 23.37L31.54 20.05L35.03 20.05L35.03 23.34C36.89 23.58 38.46 24.1 39.57 24.83L40.04 28.53C38.11 27.05 35.77 26.23 33.34 26.19C30.61 26.19 28.89 27.01 28.89 28.84C28.89 30.24 29.91 31 31.62 31.23L35.06 31.7C38.87 32.22 41.2 34.09 41.2 37.29C41.2 40.93 38.64 43.05 35.09 43.51L35.09 46.83L31.59 46.84Z" fill="#000000" fill-opacity="1.000000" fill-rule="nonzero"/>
	</g>
</svg>
