<svg width="37.000000" height="36.994141" viewBox="0 0 37 36.9941" fill="none" xmlns="http://www.w3.org/2000/svg" xmlns:xlink="http://www.w3.org/1999/xlink">
	<desc>
			Created with Pixso.
	</desc>
	<defs/>
	<path id="Vector" d="M21.36 18.49L19.95 18.49L31.3 29.84L32.01 30.55L31.3 31.25L31.15 31.4L31.15 31.4L20.1 20.35L19.1 19.35L19.1 36.99L17.9 36.99L17.9 19.35L16.9 20.35L5.84 31.4L5.84 31.4L4.99 30.55L16.04 19.49L17.04 18.49L0 18.49L0 17.29L17.04 17.29L16.04 16.29L4.99 5.23L5.84 4.39L5.84 4.38L16.9 15.43L17.9 16.43L17.9 0L19.1 0L19.1 16.43L31.15 4.38L31.15 4.38L31.3 4.53L32.01 5.23L31.3 5.94L19.95 17.29L37 17.29L37 18.49L21.36 18.49Z" fill="#000000" fill-opacity="1.000000" fill-rule="evenodd"/>
</svg>
