<svg width="160.000000" height="36.312012" viewBox="0 0 160 36.312" fill="none" xmlns="http://www.w3.org/2000/svg" xmlns:xlink="http://www.w3.org/1999/xlink">
	<desc>
			Created with Pixso.
	</desc>
	<defs>
		<clipPath id="clip201_29870">
			<rect id="Logo 1" rx="0.000000" width="159.000000" height="35.312057" transform="translate(0.500000 0.500000)" fill="white" fill-opacity="0"/>
		</clipPath>
	</defs>
	<rect id="Logo 1" rx="0.000000" width="159.000000" height="35.312057" transform="translate(0.500000 0.500000)" fill="#FFFFFF" fill-opacity="0"/>
	<g clip-path="url(#clip201_29870)">
		<path id="Shape" d="M52.82 10.06C46.27 10.06 40.5 15.52 40.5 23.34C40.5 29.94 46.01 36.09 52.91 36.09C58.17 36.09 62.73 32.79 64.63 27.67L60.07 27.67C58.61 30.36 55.93 31.84 53.09 31.84C49.4 31.84 46.12 29.14 45.08 25.06L65.33 25.06C65.51 24.2 65.51 23.5 65.51 22.72C65.48 15.7 59.97 10.06 52.82 10.06ZM45.07 21.52C45.42 17.26 49.21 14.32 52.91 14.32C56.87 14.32 60.5 17.35 60.83 21.52L45.07 21.52Z" fill="#0A0909" fill-opacity="1.000000" fill-rule="nonzero"/>
		<path id="Shape" d="M89.01 14.23C87.02 11.36 84.01 10.06 80.47 10.06C73.32 10.06 67.72 15.61 67.72 23.52C67.72 30.63 73.5 36.1 80.64 36.1C84.09 36.1 87.19 34.63 88.92 31.67L89.01 31.67L89.01 35.49L93.57 35.49L93.57 10.75L89.01 10.75L89.01 14.23ZM80.57 31.85C75.92 31.85 72.21 27.77 72.21 23.18C72.21 18.32 76 14.33 80.57 14.33C85.66 14.33 89.11 18.32 89.11 23.18C89.09 27.86 85.39 31.85 80.57 31.85Z" fill="#0A0909" fill-opacity="1.000000" fill-rule="nonzero"/>
		<path id="Rectangle" d="M98.74 2.52L103.31 2.52L103.31 35.5L98.74 35.5L98.74 2.52Z" fill="#0A0909" fill-opacity="1.000000" fill-rule="evenodd"/>
		<path id="Path" d="M119.61 14.32C122.97 14.32 125.12 16.05 126.51 18.91L131.6 18.91C130.13 13.61 125.05 10.06 119.53 10.06C112.38 10.06 107.03 15.88 107.03 23.34C107.03 30.36 112.55 36.09 119.53 36.09C124.87 36.09 129.62 32.88 131.51 27.33L126.42 27.33C125.13 30.11 122.63 31.84 119.52 31.84C114.87 31.84 111.6 28.02 111.6 23.08C111.6 18.05 114.78 14.32 119.61 14.32Z" fill="#0A0909" fill-opacity="1.000000" fill-rule="nonzero"/>
		<path id="Shape" d="M146.92 10.06C139.42 10.06 133.56 15.61 133.56 23.16C133.56 30.19 139.67 36.09 146.57 36.09C154.32 36.09 159.84 29.85 159.93 23.25C160.02 15.45 153.64 10.06 146.92 10.06ZM146.67 31.85C142.02 31.85 138.22 27.77 138.22 23.09C138.22 18.23 142.18 14.33 146.76 14.33C151.49 14.33 155.37 18.23 155.37 23C155.37 28.02 151.49 31.85 146.67 31.85Z" fill="#0A0909" fill-opacity="1.000000" fill-rule="nonzero"/>
		<path id="Path" d="M26.88 10.06C23.09 10.06 20.59 11.45 18.87 14.23C17.66 11.62 14.47 10.06 11.28 10.06C8.09 10.06 6.28 11.11 4.31 13.45L4.22 13.45L4.22 10.75L0 10.75L0 35.49L4.56 35.49L4.56 21.6C4.56 16.75 6.54 14.32 10.59 14.32C13.87 14.32 16.11 16.23 16.11 21.09L16.11 35.49L20.67 35.49L20.67 21.6C20.67 16.66 22.39 14.4 26.45 14.4C30.32 14.4 32.22 17.01 32.22 21.69L32.22 35.49L36.78 35.49L36.78 20.48C36.79 14.05 33.26 10.06 26.88 10.06Z" fill="#0A0909" fill-opacity="1.000000" fill-rule="nonzero"/>
		<path id="Path" d="M26.24 1.63C26.23 1.57 26.16 1.53 26.09 1.55C25.83 1.68 25.13 1.97 24.39 1.97C18.33 1.89 19.12 6.6 19.21 6.6L18.89 7.24L18.49 6.42C18.59 6.42 19.59 0.44 11.91 0.55C10.93 0.55 10.03 0.16 9.72 0C9.66 -0.02 9.58 0 9.57 0.08C9.43 0.63 9.01 2.91 10.31 5.33C10.46 5.61 10.71 5.97 11.07 6.35C11.29 6.59 11.57 6.83 11.88 7.04C13.04 7.86 14.78 8.37 17.09 7.32C17.88 7.92 18.48 9.78 18.77 11.06C18.79 11.17 18.96 11.17 18.98 11.04C19.12 10.1 19.34 8.64 19.74 8.03C19.92 7.73 20.09 7.51 20.32 7.29C22.62 8.35 24.21 7.42 25.06 6.52C25.12 6.46 25.16 6.41 25.21 6.35C25.41 6.12 25.57 5.9 25.66 5.72C26.66 3.86 26.36 2.11 26.24 1.63Z" fill="#49DDA8" fill-opacity="1.000000" fill-rule="nonzero"/>
	</g>
</svg>
