<svg width="249.000000" height="129.000000" viewBox="0 0 249 129" fill="none" xmlns="http://www.w3.org/2000/svg" xmlns:xlink="http://www.w3.org/1999/xlink">
	<desc>
			Created with Pixso.
	</desc>
	<defs>
		<clipPath id="clip201_16608">
			<rect rx="0.000000" width="248.000000" height="128.000000" transform="translate(0.500000 0.500000)" fill="white" fill-opacity="0"/>
		</clipPath>
	</defs>
	<rect rx="0.000000" width="248.000000" height="128.000000" transform="translate(0.500000 0.500000)" fill="#FFFFFF" fill-opacity="0"/>
	<g clip-path="url(#clip201_16608)">
		<mask id="mask201_16612" mask-type="alpha" maskUnits="userSpaceOnUse" x="0.000000" y="21.050293" width="41.364868" height="106.330566">
			<path d="M0 21.05L41.36 21.05L41.36 127.38L0 127.38L0 21.05Z" fill="#FFFFFF" fill-opacity="1.000000" fill-rule="nonzero"/>
		</mask>
		<g mask="url(#mask201_16612)">
			<path d="M41.36 74.21L41.36 124.3C41.36 127.53 41.51 127.38 38.13 127.38L33.2 127.38C31.82 127.22 31.66 127.07 31.66 125.84C31.51 125.22 31.66 124.61 31.66 124C31.66 110.63 31.66 97.26 31.51 84.04L31.51 81.12C31.51 80.97 31.51 80.66 31.2 80.66C31.05 80.66 30.89 80.97 30.89 81.12C30.43 83.28 29.97 85.27 29.66 87.42C28.43 94.49 27.2 101.56 25.97 108.78L25.66 110.01C25.35 111.4 25.2 111.55 23.81 111.55L17.5 111.55C15.65 111.55 15.5 111.55 15.19 109.55C14.12 103.1 13.04 96.64 11.81 90.19L10.42 82.51C10.42 82.35 10.27 82.05 9.96 82.05C9.81 82.05 9.81 82.51 9.81 82.66C9.81 83.74 9.65 84.66 9.65 85.73C9.65 98.33 9.65 110.78 9.65 123.38L9.65 124.92C9.65 127.07 9.65 127.07 7.34 127.22C5.5 127.22 3.5 127.22 1.65 127.07C0.11 127.07 0.11 126.91 -0.04 125.38C-0.04 124.92 -0.04 124.46 -0.04 124L-0.04 24.12C-0.04 20.89 -0.2 21.05 3.03 21.05L7.81 21.05C9.5 21.05 9.65 21.2 9.96 22.89L11.81 33.18C14.42 48.4 17.04 63.76 19.81 78.97L19.81 79.28C20.12 79.74 19.81 80.82 20.58 80.82C21.2 80.82 21.04 79.9 21.2 79.28C21.97 74.98 22.74 70.83 23.35 66.53C25.97 52.08 28.43 37.64 31.05 23.2C31.35 21.05 31.35 21.05 33.51 21.05L39.51 21.05C41.21 21.05 41.21 21.2 41.36 23.04C41.36 23.66 41.36 24.27 41.36 24.89L41.36 74.21Z" fill="#643C28" fill-opacity="1.000000" fill-rule="evenodd"/>
		</g>
		<path d="M102.62 48.42C102.62 53.32 102.62 58.23 102.62 63.29L102.62 64.67C102.77 65.89 103.08 66.2 104.45 66.05C104.91 66.05 105.37 65.89 105.82 65.74C108.42 64.51 109.79 62.52 109.95 59.46L109.95 48.72C109.95 44.89 109.95 41.21 109.79 37.38C109.79 34.31 107.96 32.01 105.21 31.09C103.23 30.48 102.62 30.94 102.62 32.93L102.62 48.42ZM93 74.63L93 24.34C93 21.58 93 21.58 95.75 21.58L104.3 21.58C112.09 21.58 118.96 28.18 119.11 36.15C119.26 44.28 119.26 52.56 119.11 60.83C119.11 64.21 117.74 67.12 115.6 69.88C114.68 71.11 114.68 71.11 115.6 72.33C117.74 75.25 118.8 78.47 118.8 82.15C118.65 96.25 118.8 110.51 118.8 124.62C118.8 127.38 118.65 127.38 116.06 127.38L111.02 127.38C109.95 127.38 109.49 126.92 109.49 126C109.49 125.38 109.49 124.77 109.49 124.16L109.49 82.91C109.49 80.61 108.88 78.62 107.05 76.93C106.28 76.32 105.37 75.86 104.3 75.71C103.08 75.55 102.77 75.86 102.62 77.09C102.62 77.7 102.62 78.31 102.62 79.08L102.62 124.46C102.62 127.38 102.62 127.38 99.72 127.38L94.53 127.38C93.46 127.38 93 126.92 93 126C93 125.38 93 124.77 93 124.16L93 74.63Z" fill="#643C28" fill-opacity="1.000000" fill-rule="evenodd"/>
		<path d="M141.61 127.38L132.69 127.38C131 127.38 130.85 127.22 130.85 125.38C130.85 124.92 130.85 124.46 130.85 124L130.85 24.81C130.85 21.29 130.7 21.59 134.23 21.59L149.29 21.59C151.75 21.59 151.75 21.59 151.9 24.04L151.9 29.41C151.75 31.25 151.75 31.4 149.9 31.4L142.53 31.4C140.68 31.4 140.53 31.56 140.53 33.24L140.53 62.37C140.53 64.06 140.68 64.21 142.68 64.21C144.37 64.36 146.22 64.21 147.91 64.36C149.29 64.36 149.44 64.52 149.6 65.9L149.6 72.8C149.44 74.18 149.29 74.33 147.75 74.33L142.68 74.33C140.68 74.48 140.53 74.48 140.53 76.48L140.53 96.87C140.53 102.39 140.53 107.75 140.53 113.27L140.53 114.65C140.53 117.26 140.53 117.26 142.99 117.26L149.44 117.26C152.36 117.26 152.36 117.26 152.36 120.32C152.52 122.01 152.52 123.7 152.36 125.38C152.36 127.22 152.21 127.38 150.37 127.38L141.61 127.38Z" fill="#643C28" fill-opacity="1.000000" fill-rule="evenodd"/>
		<mask id="mask201_16618" mask-type="alpha" maskUnits="userSpaceOnUse" x="163.026001" y="20.780273" width="47.853394" height="108.219727">
			<path d="M163.02 20.78L210.87 20.78L210.87 129L163.02 129L163.02 20.78Z" fill="#FFFFFF" fill-opacity="1.000000" fill-rule="nonzero"/>
		</mask>
		<g mask="url(#mask201_16618)">
			<path d="M163.02 74.69L163.02 24.62C163.02 21.86 163.02 21.86 165.77 21.86C167.61 21.86 169.29 21.71 171.12 21.86C172.5 21.86 172.65 22.01 172.65 23.39C172.65 23.85 172.65 24.46 172.65 25.08L172.65 124.31C172.65 127.68 172.95 127.53 169.44 127.53L164.4 127.53C163.48 127.53 163.02 127.07 163.02 126.15C163.02 125.54 163.02 124.93 163.02 124.31L163.02 74.69Z" fill="#643C28" fill-opacity="1.000000" fill-rule="evenodd"/>
		</g>
		<g mask="url(#mask201_16618)">
			<path d="M182.49 105.48C182.49 101.95 182.49 98.59 182.64 95.06C182.64 93.07 182.64 93.07 184.63 93.07C186.77 93.07 188.91 92.92 191.05 93.07C192.73 93.07 192.88 93.23 192.88 94.91C192.88 100.88 192.88 106.86 192.88 112.83L192.88 114.97C193.19 116.96 194.87 118.5 196.7 118.5C198.69 118.5 200.22 116.81 200.22 114.67C200.37 111.6 200.22 108.39 200.37 105.32C200.52 98.74 199.3 92.46 196.85 86.33L185.39 55.09C183.56 49.89 182.34 44.37 182.49 38.71C182.64 37.17 182.49 35.8 182.49 34.26C182.8 26.76 188.91 21.09 196.24 20.79C203.27 20.48 210.61 26 210.76 34.88C210.91 37.94 210.76 41 210.76 44.22C210.76 45.9 210.61 46.06 208.93 46.06L202.05 46.06C200.52 46.06 200.37 45.9 200.37 44.37L200.37 35.64C200.37 34.42 200.06 33.35 199.15 32.43C197.16 30.44 194.26 31.05 193.19 33.65C193.03 34.26 192.88 34.72 192.88 35.34C192.58 40.7 193.19 46.06 195.17 51.11L208.01 86.18C209.84 91.08 210.61 96.29 210.76 101.5C210.91 105.94 210.91 110.38 210.76 114.82C210.61 122.32 205.41 128.14 197.92 128.91C189.98 129.83 182.64 123.39 182.64 115.28C182.49 112.06 182.49 108.85 182.49 105.48Z" fill="#643C28" fill-opacity="1.000000" fill-rule="evenodd"/>
		</g>
		<path d="M249 74.48L249 124.31C249 127.53 249 127.37 245.76 127.37L241.61 127.37C240.07 127.22 239.92 127.22 239.76 125.54C239.76 124.92 239.76 124.31 239.76 123.7L239.76 77.4C239.76 74.33 239.76 74.33 236.84 74.33L232.38 74.33C231.3 74.33 230.84 74.79 230.84 75.86C230.84 76.48 230.84 77.09 230.84 77.7L230.84 124.31C230.84 127.37 230.84 127.37 227.77 127.37L222.84 127.37C221.46 127.22 221.3 127.07 221.15 125.69C221.15 125.08 221.15 124.62 221.15 124L221.15 24.81C221.15 21.29 221 21.59 224.53 21.59L229.46 21.59C230.38 21.59 230.84 21.9 230.84 22.97L230.84 24.81C230.84 36.77 230.84 48.73 230.84 60.69L230.84 61.91C230.84 64.21 231 64.21 233.15 64.21L238.38 64.21C239.3 64.21 239.76 63.75 239.76 62.83C239.76 62.22 239.76 61.6 239.76 60.99L239.76 24.81C239.76 24.2 239.92 23.58 239.76 22.97C239.76 21.9 240.38 21.59 241.3 21.59L247.46 21.59C248.38 21.59 249 21.9 248.84 22.97C248.84 23.74 249 24.35 249 24.96L249 74.48Z" fill="#643C28" fill-opacity="1.000000" fill-rule="evenodd"/>
		<path d="M80.27 126.84L54.09 126.84C53.48 126.84 52.99 126.36 52.99 125.77L52.99 118.46C52.99 117.87 53.48 117.39 54.09 117.39L80.27 117.39C80.88 117.39 81.37 117.87 81.37 118.46L81.37 125.77C81.37 126.36 80.88 126.84 80.27 126.84Z" fill="#26B1AD" fill-opacity="1.000000" fill-rule="evenodd"/>
		<path d="M63.27 57.88C63.34 57.92 63.41 57.96 63.48 57.99L63.48 15.25C63.48 14.63 63.32 14.01 63.48 13.4C63.79 11.7 65.33 10.47 67.03 10.47C68.72 10.47 70.42 11.7 70.73 13.55L70.73 15.71C70.73 28.49 70.73 43.64 70.73 56.28L70.73 62.72C70.8 62.76 70.86 62.8 70.93 62.84C74.8 65.01 78.46 65.85 81.37 66.11L81.37 16.32C81.37 15.25 81.22 14.17 81.06 13.09C80.91 6 74.28 0 67.03 0C59.62 0 52.83 6.62 52.99 14.01C53.14 27.26 52.99 43.03 52.99 56.28L52.99 57.17C55.83 56.37 59.42 56.15 63.27 57.88Z" fill="#643C28" fill-opacity="1.000000" fill-rule="evenodd"/>
		<path d="M53.14 98.58C54.37 104.71 59.62 109.15 66.1 109.77C71.96 110.38 77.98 106.7 80.14 101.03C81.06 98.58 81.37 96.28 81.37 93.82L81.37 65.9C78.46 65.64 74.8 64.8 70.93 62.64C70.86 62.6 70.8 62.56 70.73 62.52L70.73 93.98C70.73 94.74 70.73 95.51 70.73 96.28C70.42 98.12 68.88 99.34 67.18 99.34C65.33 99.34 63.78 98.12 63.48 96.12C63.32 95.66 63.48 95.05 63.48 94.59L63.48 57.81C63.41 57.78 63.33 57.74 63.26 57.71C59.42 55.99 55.83 56.2 52.99 57L52.99 95.82C52.99 96.74 52.99 97.66 53.14 98.58Z" fill="#26B1AD" fill-opacity="1.000000" fill-rule="evenodd"/>
	</g>
</svg>
